<?xml version="1.0" standalone="no"?>
<!DOCTYPE svg PUBLIC "-//W3C//DTD SVG 20010904//EN"
 "http://www.w3.org/TR/2001/REC-SVG-20010904/DTD/svg10.dtd">
<svg version="1.0" xmlns="http://www.w3.org/2000/svg"
 width="336.000000pt" height="336.000000pt" viewBox="0 0 336.000000 336.000000"
 preserveAspectRatio="xMidYMid meet">
<metadata>
Created by potrace 1.11, written by Peter Selinger 2001-2013
</metadata>
<g transform="translate(0.000000,336.000000) scale(0.100000,-0.100000)"
fill="#000000" stroke="none">
<path d="M696 3090 l-39 -5 0 -1058 c0 -581 3 -1060 6 -1064 8 -7 2115 -8
2123 -1 3 3 6 483 7 1067 l2 1061 -50 0 c-524 4 -2020 4 -2049 0z m340 -322
c0 -184 -1 -198 -18 -204 -21 -6 -61 -44 -84 -79 -17 -27 -28 -132 -13 -140 5
-4 7 -10 4 -14 -9 -15 75 -99 110 -111 68 -22 154 -3 197 45 84 92 65 229 -43
297 l-26 16 0 195 0 194 123 0 124 0 1 -41 c0 -23 0 -202 1 -398 l0 -357 -51
-51 c-49 -49 -52 -50 -93 -43 -24 4 -45 7 -48 6 -3 -1 -20 -4 -39 -6 -43 -7
-101 -54 -123 -98 -75 -157 80 -320 239 -254 81 34 113 90 109 191 l-3 69 59
60 c33 32 63 66 68 75 4 8 8 195 8 415 0 220 1 407 1 416 1 14 56 16 564 15
l562 -1 1 -62 c1 -40 -3 -64 -10 -64 -6 -1 -56 -3 -111 -4 -55 -2 -107 -3
-116 -4 -14 -1 -17 -12 -16 -61 l1 -60 126 0 125 0 2 -60 c1 -39 -3 -61 -10
-62 -7 0 -59 -2 -117 -3 -58 -1 -110 -3 -116 -4 -14 -1 -13 -121 1 -121 5 -1
62 -2 125 -3 l115 -2 1 -372 1 -373 -68 0 -69 0 -26 40 c-79 120 -252 108
-320 -23 -63 -120 35 -273 170 -268 67 2 164 66 166 109 0 13 7 14 70 14 85 0
77 28 76 -249 l-1 -248 -55 -1 c-30 -1 -59 0 -65 2 -6 3 -9 51 -7 124 2 108 0
120 -15 121 -22 1 -96 1 -104 0 -3 -1 -5 -56 -5 -123 l0 -123 -57 -2 c-31 -1
-59 3 -63 8 -3 5 -6 61 -6 124 0 110 -1 115 -22 116 -22 2 -73 1 -92 0 -7 -1
-10 -42 -10 -117 1 -64 -1 -119 -4 -123 -3 -4 -31 -8 -62 -8 -46 0 -58 3 -59
16 -3 57 -1 762 2 765 30 25 192 126 202 126 7 0 18 -5 23 -10 24 -24 109 -28
154 -7 47 21 74 46 95 87 18 34 29 140 15 140 -3 0 -7 6 -7 13 0 25 -36 68
-78 93 -79 46 -191 25 -244 -46 -26 -36 -33 -60 -34 -118 l-1 -44 -126 -84
-127 -84 1 -416 c1 -266 -3 -419 -9 -424 -5 -4 -34 -8 -62 -7 -50 0 -53 2 -54
26 0 14 -1 303 -1 640 -1 466 2 616 11 619 6 2 18 10 25 18 8 8 19 14 25 14 6
0 11 3 11 8 0 4 16 16 36 27 19 10 45 27 56 37 26 22 37 22 74 3 59 -30 157
-13 203 36 86 92 72 229 -30 291 -47 29 -121 42 -138 25 -6 -6 -11 -8 -11 -3
0 4 -18 -3 -40 -15 -58 -33 -93 -91 -95 -158 -1 -50 -4 -57 -31 -72 -16 -10
-33 -22 -39 -26 -5 -5 -49 -34 -96 -66 l-86 -56 0 -665 c0 -365 -3 -668 -6
-674 -4 -5 -175 -9 -439 -8 l-433 1 -1 115 c0 63 2 120 7 125 6 8 250 12 371
6 9 -1 20 -10 23 -22 10 -31 62 -76 102 -90 50 -16 126 -6 168 22 77 52 104
179 54 251 -53 76 -121 103 -208 84 -45 -10 -120 -74 -121 -103 0 -7 -6 -13
-12 -14 -17 -1 -371 -1 -379 0 -5 1 -6 1504 -1 1507 1 0 57 0 124 0 l123 -1 1
-197z m1096 -70 c43 -35 39 -85 -9 -107 -25 -11 -59 -1 -75 23 -35 52 35 122
84 84z m-992 -258 c40 -40 14 -103 -41 -103 -80 0 -76 120 4 122 9 1 26 -8 37
-19z m1248 -246 c34 -23 28 -84 -10 -102 -64 -30 -118 48 -68 98 24 24 48 25
78 4z m-1123 -254 c28 -30 27 -67 -1 -89 -13 -11 -30 -18 -37 -17 -33 6 -57
19 -57 31 0 7 -3 20 -6 29 -7 19 38 66 64 66 10 0 27 -9 37 -20z m1125 -247
c44 -38 9 -119 -48 -108 -77 14 -65 119 15 124 7 1 22 -7 33 -16z m-994 -254
c36 -30 -3 -113 -50 -104 -12 2 -24 4 -28 4 -4 1 -14 14 -22 29 -32 61 45 117
100 71z"/>
<path d="M659 764 c-10 -12 -9 -21 3 -42 13 -22 16 -59 14 -201 -1 -130 -4
-175 -13 -179 -20 -6 -16 -52 5 -53 24 -1 140 -1 179 0 46 1 96 54 115 122 23
82 16 217 -14 276 -37 75 -62 88 -178 90 -77 1 -101 -2 -111 -13z m171 -235
c0 -96 -5 -178 -10 -183 -12 -12 -11 -15 -11 109 0 242 1 269 12 258 7 -7 10
-71 9 -184z"/>
<path d="M1180 770 c-41 -7 -91 -32 -109 -54 -7 -8 -11 -27 -9 -43 4 -41 90
-83 167 -83 119 1 201 38 201 90 0 66 -126 111 -250 90z"/>
<path d="M1544 768 c-7 -11 4 -58 14 -58 12 0 6 -364 -7 -368 -12 -4 -16 -51
-3 -53 45 -6 208 -2 219 6 7 5 16 34 20 62 5 45 3 54 -12 59 -25 10 -48 -8
-58 -45 -16 -63 -22 -19 -22 160 -1 137 2 180 12 183 20 8 16 54 -4 59 -32 9
-153 5 -159 -5z"/>
<path d="M2048 769 c-10 -6 -10 -15 -1 -41 10 -27 9 -54 -7 -148 -11 -63 -23
-137 -26 -165 -4 -27 -13 -62 -20 -77 -18 -36 -1 -53 51 -53 49 1 67 25 41 54
-21 23 -11 47 19 47 27 -1 35 -26 17 -54 -22 -33 -5 -44 73 -46 77 -2 90 4 82
35 -3 13 -10 42 -16 64 -11 45 -18 90 -27 167 -3 29 -10 71 -15 93 -5 22 -9
54 -9 72 0 48 -21 62 -89 61 -33 -1 -66 -5 -73 -9z m71 -297 c1 -23 -3 -32
-11 -29 -12 3 -15 36 -8 97 2 24 3 24 10 -5 4 -16 8 -45 9 -63z"/>
<path d="M2486 772 c-11 -10 -6 -50 6 -54 16 -6 20 -333 4 -363 -5 -11 -12
-30 -13 -42 -4 -25 -4 -25 92 -25 83 0 85 0 85 26 0 13 -6 28 -13 35 -8 6 -12
25 -11 43 1 18 3 38 3 45 1 6 14 11 30 11 40 -1 91 31 115 71 26 45 26 137 0
182 -37 62 -62 73 -183 75 -60 1 -112 0 -115 -4z m169 -162 c0 -60 -4 -105
-10 -107 -6 -2 -10 38 -10 107 0 69 4 109 10 107 6 -2 10 -47 10 -107z"/>
<path d="M1054 608 c6 -49 18 -67 61 -88 60 -29 166 -38 188 -16 8 9 22 16 29
16 8 0 19 5 24 10 6 6 21 13 34 15 29 6 38 14 40 40 4 42 0 46 -22 25 -64 -59
-262 -60 -325 0 -28 25 -32 25 -29 -2z"/>
<path d="M1056 504 c2 -20 9 -43 15 -51 21 -24 81 -50 132 -56 44 -6 49 -4 59
18 6 14 15 25 19 25 5 0 6 6 4 13 -3 7 -28 13 -61 15 -61 2 -118 23 -150 53
l-20 19 2 -36z"/>
<path d="M1390 489 c0 -18 -5 -21 -30 -17 -35 5 -47 -6 -30 -27 8 -10 6 -18
-11 -34 l-23 -21 23 -21 c18 -17 20 -24 10 -35 -17 -20 5 -44 23 -26 13 13 38
-2 38 -24 0 -8 6 -11 15 -8 8 4 15 12 15 19 0 20 20 29 33 16 20 -20 28 -11
21 24 -5 27 -3 35 9 35 25 0 30 31 7 37 -16 4 -20 12 -18 37 3 28 1 31 -23 28
-20 -2 -28 2 -32 17 -7 27 -27 27 -27 0z m44 -81 c14 -23 -3 -52 -32 -56 -27
-4 -43 25 -31 56 10 27 46 27 63 0z"/>
<path d="M1059 432 c-12 -71 32 -115 128 -129 46 -7 54 -7 87 -4 8 0 13 9 12
18 -2 29 -29 53 -59 53 -49 0 -116 21 -142 46 -14 13 -26 20 -26 16z"/>
</g>
</svg>
